
        <svg xmlns="http://www.w3.org/2000/svg" xmlns:xlink="http://www.w3.org/1999/xlink" version="1.1" width="3200" 
        height="602.4742117508486" viewBox="0 0 3200 602.4742117508486">
			<rect fill="#000000" width="3200" height="602.4742117508486"/>
			<g transform="scale(10.000000000000002) translate(10, 10)">
				<defs id="SvgjsDefs1460"></defs><g id="SvgjsG1461" featureKey="nameFeature-0" transform="matrix(1.6508375476538193,0,0,1.6508375476538193,-5.510589899770697,-26.448068199823147)" fill="#fbfdfa"><path d="M33.209 19.299 c1.8355 1.8198 1.8204 4.452 1.7971 8.4364 c-0.0018359 0.29664 -0.0033984 0.604 -0.0046876 0.92236 c-0.0089064 2.3647 -0.015195 4.0732 -0.26344 5.514 c-0.21137 1.2284 -0.69948 2.9991 -2.4872 4.1908 c-2.2642 1.5093 -5.6464 1.5434 -13.056 1.6174 c-1.1572 0.011524 -2.2245 0.020156 -3.2091 0.020156 c-5.8708 0 -8.822 -0.31074 -10.708 -2.1844 c-1.964 -1.9514 -1.953 -4.8252 -1.9368 -9.1752 c0.018047 -4.8536 0.029024 -7.7832 2.4894 -9.602 c2.1227 -1.569 5.2056 -1.6103 11.96 -1.7011 l1.3479 -0.018555 c8.4176 -0.12031 11.902 -0.17027 14.071 1.9805 z M30.343 27.708 c0.013086 -2.2896 0.026914 -4.6576 -0.41728 -5.0976 c-0.55112 -0.54644 -3.0246 -0.67276 -6.3168 -0.67276 c-1.3547 0 -2.8484 0.021445 -4.4036 0.043672 l-1.3521 0.018555 c-4.8388 0.064884 -8.3348 0.11195 -9.25 0.78812 c-0.5776 0.42692 -0.587 2.9488 -0.59796 5.8692 c-0.010195 2.7118 -0.019883 5.2732 0.56032 5.8496 c0.9108 0.90508 5.8276 0.85564 10.583 0.80856 c5.4604 -0.054412 9.4056 -0.093908 10.516 -0.8342 c0.65372 -0.4358 0.66208 -2.7032 0.67384 -5.8416 c0.0010547 -0.32148 0.0028906 -0.632 0.0047264 -0.93176 z M73.53999999999999 16.89 l0.033516 2.3475 c0.036641 2.5258 -0.98144 4.978 -2.8667 6.9048 c-1.7693 1.8086 -5.0244 3.9321 -10.734 4.4284 l-0.073516 9.2524 l-4.6952 -0.032188 l0.072968 -9.1988 c-4.4648 -0.36281 -8.18 -1.8598 -10.617 -4.3144 c-1.9467 -1.9608 -2.9982 -4.4612 -2.9608 -7.0404 l0.034258 -2.3474 l4.6948 0.06828 l-0.034024 2.3474 c-0.019102 1.3246 0.53336 2.5918 1.5982 3.664 c1.9606 1.9747 5.3816 3.0474 9.6268 3.014 c4.3352 -0.031641 7.7912 -1.1413 9.7316 -3.1248 c1.0183 -1.0406 1.5464 -2.2692 1.5279 -3.553 l-0.034024 -2.3474 z M88.631 16.021 l18.353 24.38 l-5.9015 0 l-5.132 -6.7948 l-14.639 0 l-5.0572 6.7948 l-5.8354 0 z M84.83200000000001 28.911 l7.5966 0 l-3.7984 -5.0644 z M138.99800000000002 17.185 l4.6952 0 l0 22.5 l-27.179 -14.196 l0 14.511 l-4.6954 0 l0 -22.5 l27.18 14.196 l0 -14.511 z M166.711 16.021 l18.353 24.38 l-5.9015 0 l-5.132 -6.7948 l-14.639 0 l-5.0572 6.7948 l-5.8354 0 z M162.91200000000003 28.911 l7.5966 0 l-3.7984 -5.0644 z"></path></g>
			</g>
		</svg>
	