<svg xmlns="http://www.w3.org/2000/svg" viewBox="0 0 64 64">
  <rect width="64" height="64" rx="14" fill="#0a0a0a"/>
  <g transform="translate(8, 14.75) scale(1.5) translate(-3.3, -17)">
    <path fill="#ffffff" d="M33.209 19.299 c1.8355 1.8198 1.8204 4.452 1.7971 8.4364 c-0.0018359 0.29664 -0.0033984 0.604 -0.0046876 0.92236 c-0.0089064 2.3647 -0.015195 4.0732 -0.26344 5.514 c-0.21137 1.2284 -0.69948 2.9991 -2.4872 4.1908 c-2.2642 1.5093 -5.6464 1.5434 -13.056 1.6174 c-1.1572 0.011524 -2.2245 0.020156 -3.2091 0.020156 c-5.8708 0 -8.822 -0.31074 -10.708 -2.1844 c-1.964 -1.9514 -1.953 -4.8252 -1.9368 -9.1752 c0.018047 -4.8536 0.029024 -7.7832 2.4894 -9.602 c2.1227 -1.569 5.2056 -1.6103 11.96 -1.7011 l1.3479 -0.018555 c8.4176 -0.12031 11.902 -0.17027 14.071 1.9805 z M30.343 27.708 c0.013086 -2.2896 0.026914 -4.6576 -0.41728 -5.0976 c-0.55112 -0.54644 -3.0246 -0.67276 -6.3168 -0.67276 c-1.3547 0 -2.8484 0.021445 -4.4036 0.043672 l-1.3521 0.018555 c-4.8388 0.064884 -8.3348 0.11195 -9.25 0.78812 c-0.5776 0.42692 -0.587 2.9488 -0.59796 5.8692 c-0.010195 2.7118 -0.019883 5.2732 0.56032 5.8496 c0.9108 0.90508 5.8276 0.85564 10.583 0.80856 c5.4604 -0.054412 9.4056 -0.093908 10.516 -0.8342 c0.65372 -0.4358 0.66208 -2.7032 0.67384 -5.8416 c0.0010547 -0.32148 0.0028906 -0.632 0.0047264 -0.93176 z"/>
  </g>
</svg>
